<svg width="142" height="65" viewBox="0 0 142 65" fill="none"
    xmlns="http://www.w3.org/2000/svg">
    <path d="M25.3816 19.0202C25.3478 18.4829 25.2198 17.9557 25.0034 17.4627C24.7457 16.9156 24.402 16.4133 23.9856 15.9749C23.9856 15.9795 23.8938 16.0649 23.802 16.1497C23.7096 16.234 23.6167 16.3182 23.6144 16.3205C24.6241 17.3128 25.2108 18.7028 24.8234 19.8363C24.1553 21.7912 21.6104 23.1272 21.5029 23.3067L23.3692 23.6978C24.7529 22.5245 25.2943 21.6431 25.4916 20.2594C25.5555 20.0939 25.6657 19.1939 25.804 18.8023C25.947 18.3721 26.1521 17.965 26.4128 17.594C26.382 17.5202 26.353 17.4406 26.3274 17.3569C25.9247 17.8568 25.6053 18.4185 25.3816 19.0202Z" fill="white"/>
    <path d="M20.4719 8.95097C20.5849 8.97145 20.7015 8.95541 20.8048 8.90519C20.9082 8.85497 20.9928 8.77316 21.0465 8.67162C21.1002 8.57009 21.1202 8.45409 21.1036 8.34042C21.087 8.22676 21.0346 8.12134 20.9541 8.03942C20.8736 7.9575 20.7691 7.90335 20.6557 7.88479C20.5423 7.86624 20.426 7.88425 20.3236 7.93622C20.2211 7.98818 20.1379 8.07141 20.0859 8.17385C20.0339 8.27628 20.0159 8.39261 20.0344 8.50597C20.0525 8.61622 20.1043 8.71818 20.1826 8.79785C20.2609 8.87752 20.362 8.93101 20.4719 8.95097Z" fill="white"/>
    <path d="M22.1652 9.67948C22.1987 9.67327 22.2299 9.65807 22.2555 9.63551C22.281 9.61295 22.3 9.58387 22.3103 9.55139C22.3206 9.5189 22.3219 9.48422 22.3141 9.45105C22.3062 9.41788 22.2895 9.38746 22.2657 9.36304C22.2419 9.33863 22.212 9.32113 22.179 9.31241C22.146 9.30369 22.1113 9.30409 22.0786 9.31355C22.0459 9.32302 22.0163 9.3412 21.9931 9.36615C21.9698 9.3911 21.9538 9.42189 21.9467 9.45523C21.9401 9.48555 21.9411 9.51704 21.9496 9.54688C21.9581 9.57672 21.9739 9.60398 21.9956 9.62621C22.0172 9.64844 22.044 9.66494 22.0736 9.67424C22.1033 9.68354 22.1347 9.68534 22.1652 9.67948Z" fill="white"/>
    <path d="M23.9534 10.409C23.955 10.2792 23.8511 10.1727 23.7213 10.1711C23.5915 10.1695 23.485 10.2734 23.4834 10.4032C23.4818 10.533 23.5857 10.6395 23.7155 10.6411C23.8453 10.6427 23.9518 10.5388 23.9534 10.409Z" fill="white"/>
    <path d="M25.0783 10.7513C25.0805 10.5695 24.935 10.4204 24.7533 10.4181C24.5715 10.4159 24.4223 10.5614 24.4201 10.7432C24.4178 10.9249 24.5634 11.0741 24.7451 11.0763C24.9269 11.0786 25.076 10.9331 25.0783 10.7513Z" fill="white"/>
    <path d="M24.5443 8.18256C24.5479 7.85802 24.2878 7.59194 23.9633 7.58825C23.6388 7.58456 23.3727 7.84466 23.369 8.1692C23.3653 8.49374 23.6254 8.75983 23.9499 8.76352C24.2745 8.76721 24.5406 8.5071 24.5443 8.18256Z" fill="white"/>
    <path d="M30.1358 14.1865C28.7136 14.1865 25.5294 14.4921 26.3085 17.3022C26.3131 17.3208 26.3236 17.3364 26.3271 17.3568C26.6168 16.996 26.9453 16.6682 27.3065 16.379C27.7403 16.0336 28.215 15.743 28.72 15.514C27.8202 16.0469 27.0357 16.754 26.4125 17.5938C26.4815 17.8361 26.6258 18.05 26.8246 18.2047C27.0234 18.3594 27.2662 18.4468 27.518 18.4542C28.3441 18.4542 29.2969 17.6031 29.6112 16.6474C29.9118 15.7935 30.3074 14.976 30.7905 14.2103C30.7905 14.2103 30.5314 14.1865 30.1358 14.1865Z" fill="white"/>
    <path d="M22.8556 15.5019C22.5151 15.16 22.1565 14.8365 21.7814 14.5329C21.5478 14.6199 21.2998 14.6615 21.0506 14.6555C20.3125 14.6139 19.5872 14.4455 18.9063 14.1576C19.3642 14.2771 19.8354 14.3382 20.3087 14.3395C20.6863 14.3431 21.0627 14.2982 21.4288 14.2058C21.3939 14.1785 21.0709 13.9432 20.7102 13.651C20.3637 13.3874 20.0468 13.0871 19.7649 12.7552C19.7481 12.7558 19.7318 12.7558 19.715 12.7558C19.0254 12.6971 18.3793 12.3948 17.8925 11.9029L17.8943 11.9024C18.3635 12.1567 18.8844 12.3009 19.4175 12.3241C18.8307 11.4948 18.4955 10.5139 18.452 9.49897C18.452 9.47748 18.4526 9.46586 18.4526 9.46586C18.5389 9.73678 18.6408 10.0025 18.7576 10.2618C19.0386 10.9011 19.3806 11.5118 19.7789 12.0854C19.8286 11.8387 19.8537 11.5876 19.8538 11.3359C19.8435 11.0326 19.8105 10.7304 19.7551 10.432C20.0218 10.8982 20.1717 11.422 20.192 11.9587C20.1933 12.1511 20.1661 12.3425 20.1112 12.5269C20.3841 12.8266 20.687 13.0976 21.0152 13.3356C21.3243 13.5674 21.6054 13.7527 21.7559 13.8695C21.8757 13.4442 21.9312 13.0034 21.9203 12.5617C21.9191 12.1161 21.8738 11.6716 21.785 11.2348C22.0666 11.8985 22.2311 12.6059 22.2712 13.3257C22.2812 13.614 22.2218 13.9005 22.098 14.1611C22.3697 14.3613 22.6304 14.5759 22.8789 14.8042C23.1351 15.0447 23.4447 15.373 23.9798 15.9696C24.3184 15.7382 24.5955 15.4277 24.7869 15.0649C24.9784 14.7022 25.0784 14.2982 25.0783 13.8881C25.0783 12.3183 23.7329 10.676 22.5094 10.1647C20.6463 9.38743 19.869 9.54603 18.1598 6.74585C17.3126 8.05526 16.8716 9.58594 16.8921 11.1454C16.8487 12.8204 17.3762 14.4604 18.3881 15.7959C20.587 18.4357 22.8707 16.9357 23.6137 16.3257C23.3262 16.0114 23.117 15.7686 22.8556 15.5019Z" fill="white"/>
    <path d="M33.1772 43.239C30.6797 45.1897 27.0119 46.3482 23.701 46.6594C16.6822 47.3189 12.4738 45.9446 9.53009 41.8223C6.60236 37.7224 10.1024 32.0635 10.1024 32.0635C10.1024 32.0635 7.51386 40.1583 14.3763 43.6049C21.2388 47.0515 31.8224 43.0928 34.6905 40.1731C35.6261 39.3176 36.4386 38.3367 37.105 37.2583C37.105 37.2583 35.9536 41.0704 33.1772 43.239Z" fill="white"/>
    <path d="M16.9336 48.5393C17.092 48.6312 27.0003 54.3187 33.8229 43.239C32.229 44.4982 30.4448 45.4955 28.5373 46.1937C26.1047 48.3887 22.3786 50.09 16.9336 48.5393Z" fill="white"/>
    <path d="M30.3684 24.586C30.3684 24.586 23.2036 19.184 15.7327 25.6126C15.8438 25.5441 20.7622 22.532 26.1366 24.8465C25.7651 25.4893 25.3096 26.0796 24.782 26.6019C24.3706 26.3077 23.9325 26.0527 23.4734 25.8404C23.7952 26.2139 24.0999 26.5884 24.3876 26.9638C21.0239 29.8415 16.4062 28.7613 16.4062 28.7613C17.9271 29.4873 19.622 29.7691 21.296 29.5742C22.2477 32.6412 22.8922 35.7951 23.2199 38.9896C21.2966 39.4014 19.3197 39.5027 17.3642 39.2897C17.2225 37.8141 17.1573 36.612 17.1573 36.612C16.8994 37.455 16.717 38.3192 16.6123 39.1945C15.4786 39.0427 14.3651 38.7663 13.292 38.3703C14.3282 38.9367 15.4182 39.3986 16.5458 39.7491C16.4198 40.9546 16.3606 42.166 16.3683 43.378C16.9295 43.5492 17.5014 43.6832 18.0803 43.7788C17.7618 42.5389 17.5465 41.2747 17.4365 39.9992C19.3652 40.4794 21.3603 40.6357 23.3402 40.4615C23.4211 41.5883 23.4349 42.7189 23.3815 43.8473C24.0611 43.7661 24.7357 43.6547 25.3986 43.5178C25.3357 42.3595 25.2218 41.2662 25.0707 40.2396C26.5297 39.9845 27.96 39.5866 29.3411 39.0516C29.4753 40.1441 29.5118 41.2464 29.4503 42.3455C30.0927 42.104 30.7028 41.8459 31.2718 41.577C31.3207 41.5252 31.3461 41.4939 31.3461 41.4939C31.3495 40.415 31.2859 39.3369 31.1557 38.2659C31.8681 37.9251 32.5603 37.5437 33.2291 37.1235C33.1765 38.4175 32.8886 39.691 32.3796 40.8818C32.3532 40.9248 32.318 40.9884 32.275 41.0705C33.228 40.5845 34.107 39.9652 34.8855 39.2314C35.1436 38.9899 35.3884 38.7461 35.6198 38.5C36.2048 35.9214 36.0189 33.2276 35.0853 30.7538C34.1516 28.2799 32.5113 26.1351 30.3684 24.586ZM24.7831 38.5731C24.209 35.3913 23.0685 32.3383 21.4157 29.5594C22.7817 29.3638 24.0969 28.9056 25.2888 28.2103C27.0231 30.7607 28.2593 33.6162 28.9322 36.6262C27.6401 37.4535 26.2452 38.108 24.7831 38.5731ZM30.6126 35.4203C29.898 32.4638 28.3422 29.7776 26.1335 27.6865C26.8717 27.1906 27.5611 26.6258 28.1924 25.9995C28.4334 26.1683 28.6741 26.35 28.9145 26.5444C31.009 28.2148 32.4489 30.569 32.9818 33.1944C32.2497 33.9955 31.4577 34.7396 30.6126 35.4203Z" fill="white"/>
    <path d="M47.7914 24.408L54.2966 41.1176L51.5406 41.5149L49.877 37.0457H43.2478L41.6339 41.2914H38.8779L45.3334 24.408L47.7914 24.408ZM46.5003 28.2067L44.0423 34.7863H49.0329L46.5003 28.2067Z" fill="white"/>
    <path d="M66.7109 29.2495V42.1107C66.7387 42.7924 66.6061 43.4711 66.3236 44.0921C66.0411 44.7132 65.6167 45.2592 65.0846 45.6861C64.0003 46.5632 62.5147 47.0018 60.6279 47.002C59.8433 46.9751 59.0645 46.8585 58.3064 46.6544C57.508 46.4868 56.7467 46.1755 56.0595 45.7358L56.9036 43.7247C57.527 44.0241 58.1699 44.2812 58.8278 44.4943C59.3874 44.6629 59.969 44.7466 60.5534 44.7426C61.4165 44.7819 62.2682 44.533 62.9742 44.035C63.2763 43.8104 63.519 43.5155 63.6812 43.1758C63.8435 42.8362 63.9204 42.462 63.9053 42.0859V40.7949C63.4864 41.0545 63.0358 41.259 62.5646 41.4032C62.1387 41.5378 61.6952 41.6089 61.2486 41.6142C60.1329 41.6419 59.0305 41.3674 58.0582 40.8197C57.1597 40.2944 56.4347 39.5176 55.9726 38.5851C55.4654 37.542 55.2143 36.3929 55.2401 35.2333C55.2152 34.0857 55.4664 32.9489 55.9726 31.9186C56.4403 30.9883 57.1751 30.2188 58.083 29.7088C59.0677 29.1709 60.1765 28.9012 61.2983 28.9267C61.8691 28.9418 62.4326 29.0596 62.9618 29.2743C63.5564 29.4961 64.1102 29.8149 64.6005 30.2178L65.1964 29.2495L66.7109 29.2495ZM62.6639 38.97C63.1171 38.7888 63.5368 38.5328 63.9053 38.2127V32.3035C63.548 31.9807 63.136 31.7243 62.6887 31.5462C62.2434 31.3836 61.7722 31.3036 61.2982 31.3103C60.8483 31.2918 60.4005 31.3814 59.9923 31.5714C59.5841 31.7615 59.2274 32.0466 58.9519 32.4028C58.3548 33.2129 58.0525 34.2029 58.0953 35.2084C58.043 36.2459 58.3451 37.2703 58.9519 38.1134C59.2273 38.4697 59.5841 38.7548 59.9923 38.9448C60.4005 39.1349 60.8483 39.2244 61.2982 39.2058C61.764 39.2113 62.2269 39.1314 62.6639 38.97V38.97Z" fill="white"/>
    <path d="M72.521 41.2912H69.7402V29.2493H71.2299L72.1485 31.2356C72.7838 30.7128 73.47 30.2553 74.197 29.8701C74.8111 29.502 75.5056 29.2889 76.2205 29.2493L76.7915 31.4839C76.0571 31.5233 75.3424 31.736 74.7059 32.1046C73.9164 32.5149 73.1823 33.0238 72.521 33.6192V41.2912Z" fill="white"/>
    <path d="M89.4038 38.5849C88.9087 39.5266 88.1494 40.3033 87.219 40.8195C86.2058 41.3663 85.0678 41.6401 83.9167 41.614C82.7734 41.6423 81.6428 41.3683 80.6393 40.8195C79.7237 40.3019 78.9778 39.5301 78.4917 38.5974C77.9932 37.5591 77.7344 36.4221 77.7344 35.2703C77.7344 34.1186 77.9932 32.9815 78.4917 31.9432C78.9827 31.0058 79.7381 30.2331 80.6642 29.7211C81.6846 29.2009 82.8133 28.9287 83.9587 28.9265C85.1041 28.9244 86.2338 29.1923 87.2562 29.7086C88.1804 30.2191 88.9322 30.9925 89.4163 31.9308C89.9375 32.961 90.1975 34.1035 90.1736 35.2579C90.1976 36.4136 89.933 37.5571 89.4038 38.5849ZM86.3624 38.0883C86.9997 37.2953 87.3303 36.2994 87.2935 35.2827C87.3396 34.2497 87.0185 33.2338 86.3872 32.4149C86.0866 32.0671 85.7144 31.7883 85.2961 31.5977C84.8778 31.407 84.4233 31.3089 83.9636 31.31C83.5038 31.3112 83.0498 31.4117 82.6325 31.6045C82.2152 31.7974 81.8444 32.078 81.5456 32.4274C80.9047 33.2294 80.5663 34.2314 80.5897 35.2578C80.5419 36.2872 80.8633 37.2998 81.496 38.1131C81.7877 38.4697 82.1581 38.7539 82.5781 38.9435C82.9981 39.133 83.4563 39.2227 83.9167 39.2056C84.3829 39.2202 84.8461 39.127 85.2703 38.9332C85.6945 38.7394 86.0683 38.4503 86.3624 38.0883V38.0883Z" fill="white"/>
    <path d="M92.0845 40.2733L92.7053 38.0387C93.3522 38.3528 94.0251 38.6104 94.7164 38.8084C95.4241 39.0293 96.16 39.1464 96.9013 39.156C97.7731 39.2088 98.6421 39.0152 99.409 38.5974C99.6815 38.4362 99.9059 38.2049 100.059 37.9276C100.212 37.6503 100.287 37.3372 100.278 37.0207C100.275 36.5822 100.106 36.1611 99.8063 35.8413C99.4592 35.4597 99.0525 35.1369 98.6021 34.8854C98.1137 34.6042 97.4061 34.2318 96.4793 33.7681C95.1948 33.1603 94.0102 32.3608 92.966 31.397C92.5789 31.0131 92.2746 30.554 92.0717 30.048C91.8689 29.542 91.7719 28.9998 91.7866 28.4548C91.776 27.6455 92.0144 26.8524 92.4694 26.183C92.9628 25.4812 93.642 24.9309 94.4309 24.5939C95.3829 24.1852 96.4118 23.9862 97.4475 24.0105C98.2495 24.0139 99.0473 24.1267 99.8188 24.3457C100.593 24.5585 101.346 24.8453 102.066 25.2023L101.122 27.4121C100.556 27.1391 99.9711 26.9068 99.3719 26.7169C98.7793 26.5438 98.1642 26.4601 97.5469 26.4685C96.8112 26.4379 96.0813 26.6097 95.4365 26.9652C95.1783 27.1102 94.9651 27.3237 94.8206 27.5822C94.676 27.8407 94.6056 28.1341 94.6171 28.43C94.6116 28.8782 94.7656 29.3138 95.0516 29.659C95.3717 30.0405 95.7587 30.3602 96.1937 30.6025C96.6655 30.8757 97.4063 31.2688 98.4159 31.7818C99.2935 32.2221 100.143 32.7154 100.961 33.2591C101.581 33.6811 102.113 34.2211 102.525 34.8482C102.938 35.4962 103.15 36.2523 103.133 37.0207C103.147 37.8707 102.895 38.7037 102.413 39.4043C101.879 40.1416 101.141 40.7068 100.29 41.0305C99.2183 41.4441 98.0751 41.6424 96.9262 41.614C96.0336 41.5854 95.1487 41.4393 94.2943 41.1795C93.5128 41.0015 92.7661 40.6953 92.0845 40.2733Z" fill="white"/>
    <path d="M104.151 31.4839V29.3487H105.989V28.0824C105.941 27.5138 106.018 26.9417 106.214 26.4061C106.411 25.8705 106.723 25.3844 107.128 24.9822C107.532 24.5799 108.02 24.2711 108.557 24.0775C109.093 23.8839 109.666 23.8102 110.234 23.8616C110.642 23.8682 111.048 23.9308 111.439 24.0477C111.8 24.1358 112.141 24.2917 112.444 24.5071L111.674 26.5927C111.28 26.4247 110.861 26.324 110.433 26.2947C110.195 26.2766 109.956 26.3195 109.738 26.4194C109.521 26.5194 109.333 26.673 109.192 26.8658C108.903 27.3345 108.764 27.8803 108.794 28.43V29.3487H111.029L111.923 31.4839H108.794V41.2913H105.989V31.4839H104.151Z" fill="white"/>
    <path d="M124.412 36.0027H116.069C116.317 38.1546 117.6 39.2305 119.918 39.2304C120.503 39.2397 121.086 39.1516 121.643 38.9698C122.269 38.7429 122.879 38.4732 123.468 38.1628L124.312 40.1988C123.012 41.1133 121.458 41.5993 119.868 41.5892C117.683 41.5892 116.015 41.0222 114.865 39.8884C113.714 38.7549 113.139 37.2114 113.139 35.2579C113.115 34.113 113.357 32.9782 113.847 31.9432C114.293 31.0191 115.001 30.2465 115.883 29.7211C116.837 29.1734 117.924 28.8986 119.024 28.9265C120.795 28.9265 122.136 29.5141 123.046 30.6894C123.996 31.99 124.477 33.5741 124.412 35.1834L124.412 36.0027ZM116.119 34.1405H121.73C121.647 33.3597 121.326 32.6232 120.811 32.0301C120.568 31.7871 120.277 31.5975 119.956 31.4735C119.636 31.3495 119.293 31.2939 118.949 31.3101C118.595 31.295 118.24 31.3534 117.909 31.4816C117.578 31.6097 117.277 31.8049 117.025 32.0549C116.501 32.6308 116.182 33.3643 116.119 34.1405V34.1405Z" fill="white"/>
    <path d="M129.303 41.2912H126.522V29.2493H128.012L128.931 31.2356C129.566 30.7128 130.252 30.2553 130.979 29.8701C131.593 29.502 132.288 29.2889 133.003 29.2493L133.574 31.4839C132.839 31.5233 132.125 31.736 131.488 32.1046C130.699 32.5149 129.964 33.0238 129.303 33.6192V41.2912Z" fill="white"/>
    <path d="M129.606 43.533H72.0945C69.8677 43.533 68.0625 45.3382 68.0625 47.565V47.565C68.0625 49.7918 69.8677 51.597 72.0945 51.597H129.606C131.833 51.597 133.638 49.7918 133.638 47.565C133.638 45.3382 131.833 43.533 129.606 43.533Z" fill="white"/>
    <path d="M78.125 45.9053L78.1202 46.6266H76.4398V47.3978H77.9916V48.1196H76.4398V49.37H75.5352V45.9053L78.125 45.9053Z" fill="#754C29"/>
    <path d="M80.6708 48.757H79.1734L78.9312 49.3699H78.002L79.4897 45.9053H80.4189L81.872 49.3699H80.9081L80.6708 48.757ZM80.404 48.0652L79.9293 46.8293L79.445 48.0652H80.404Z" fill="#754C29"/>
    <path d="M84.2635 49.3699L83.7594 48.4109H83.0873V49.3699H82.1826V45.9053H83.7397C84.6588 45.9053 85.1827 46.3497 85.1827 47.121C85.1988 47.347 85.1491 47.5728 85.0394 47.7711C84.9298 47.9694 84.765 48.1316 84.5649 48.238L85.2867 49.3699H84.2635ZM83.0873 47.6892H83.7445C83.8196 47.7002 83.8962 47.6942 83.9687 47.6717C84.0411 47.6491 84.1076 47.6105 84.1631 47.5588C84.2186 47.507 84.2618 47.4434 84.2895 47.3728C84.3171 47.3021 84.3285 47.2261 84.3228 47.1504C84.3228 46.8095 84.1104 46.6266 83.7445 46.6266H83.0873V47.6892Z" fill="#754C29"/>
    <path d="M86.7483 45.9053L87.6678 47.9265L88.587 45.9053H89.5755V49.37H88.7748L88.7699 47.1754L87.9644 49.0238H87.3713L86.5653 47.1754V49.37H85.7598V45.9053L86.7483 45.9053Z" fill="#754C29"/>
    <path d="M92.9804 45.9053V46.6266H91.1517V47.2741H92.8023V47.9959H91.1517V48.6483H93.03V49.37H90.2471V45.9053L92.9804 45.9053Z" fill="#754C29"/>
    <path d="M95.6639 49.3699L95.1598 48.4109H94.4877V49.3699H93.583V45.9053H95.1401C96.0592 45.9053 96.5831 46.3497 96.5831 47.121C96.5992 47.347 96.5495 47.5728 96.4398 47.7711C96.3302 47.9694 96.1653 48.1316 95.9653 48.238L96.6871 49.3699H95.6639ZM94.4877 47.6892H95.1449C95.22 47.7002 95.2966 47.6942 95.3691 47.6717C95.4415 47.6491 95.508 47.6105 95.5635 47.5588C95.619 47.507 95.6622 47.4434 95.6899 47.3728C95.7175 47.3021 95.7289 47.2261 95.7232 47.1504C95.7232 46.8095 95.5108 46.6266 95.1449 46.6266H94.4877V47.6892Z" fill="#754C29"/>
    <path d="M101.214 47.121C101.214 47.9366 100.705 48.4109 99.8203 48.4109H99.2025V49.3699H98.2979V45.9053H99.8203C100.705 45.9053 101.214 46.3497 101.214 47.121ZM100.354 47.1504C100.354 46.8095 100.141 46.6266 99.7755 46.6266H99.2025V47.6892H99.7755C99.8506 47.7002 99.9273 47.6942 99.9997 47.6717C100.072 47.6491 100.139 47.6105 100.194 47.5588C100.25 47.5071 100.293 47.4435 100.321 47.3728C100.348 47.3021 100.36 47.2261 100.354 47.1504H100.354Z" fill="#754C29"/>
    <path d="M103.739 49.3699L103.235 48.4109H102.563V49.3699H101.658V45.9053H103.215C104.134 45.9053 104.658 46.3497 104.658 47.121C104.674 47.347 104.625 47.5728 104.515 47.7711C104.405 47.9694 104.241 48.1316 104.041 48.238L104.762 49.3699H103.739ZM102.563 47.6892H103.22C103.295 47.7002 103.372 47.6942 103.444 47.6717C103.517 47.6491 103.583 47.6105 103.639 47.5588C103.694 47.507 103.737 47.4434 103.765 47.3728C103.793 47.3021 103.804 47.2261 103.798 47.1504C103.798 46.8095 103.586 46.6266 103.22 46.6266H102.563V47.6892Z" fill="#754C29"/>
    <path d="M108.76 47.6352C108.785 48.0109 108.696 48.3853 108.505 48.7097C108.314 49.0341 108.029 49.2937 107.689 49.4545C107.349 49.6154 106.968 49.6702 106.596 49.6119C106.224 49.5535 105.878 49.3846 105.603 49.1272C105.329 48.8698 105.138 48.5357 105.055 48.1684C104.973 47.801 105.003 47.4174 105.141 47.0673C105.28 46.7171 105.52 46.4167 105.832 46.2051C106.143 45.9934 106.511 45.8802 106.887 45.8803C107.126 45.868 107.366 45.9041 107.591 45.9865C107.816 46.0688 108.022 46.1957 108.197 46.3595C108.372 46.5234 108.512 46.7208 108.608 46.94C108.705 47.1592 108.757 47.3956 108.76 47.6352ZM105.943 47.64C105.937 47.8988 106.035 48.1492 106.214 48.3363C106.392 48.5234 106.638 48.6319 106.897 48.6381C107.095 48.6462 107.291 48.5949 107.459 48.4908C107.628 48.3868 107.761 48.2347 107.843 48.0541C107.925 47.8736 107.95 47.6728 107.917 47.4775C107.884 47.2822 107.793 47.1013 107.656 46.958C107.519 46.8148 107.342 46.7157 107.149 46.6735C106.955 46.6313 106.753 46.648 106.569 46.7213C106.385 46.7945 106.227 46.9212 106.116 47.0849C106.004 47.2486 105.944 47.4419 105.943 47.64Z" fill="#754C29"/>
    <path d="M111.799 45.9053L111.794 46.6266H110.114V47.3978H111.665V48.1196H110.114V49.37H109.209V45.9053L111.799 45.9053Z" fill="#754C29"/>
    <path d="M113.114 45.9053V49.37H112.209V45.9053L113.114 45.9053Z" fill="#754C29"/>
    <path d="M114.69 45.9053V48.5987H116.158V49.37H113.785V45.9053L114.69 45.9053Z" fill="#754C29"/>
    <path d="M117.472 45.9053V49.37H116.567V45.9053L117.472 45.9053Z" fill="#754C29"/>
    <path d="M118.939 45.9053L120.511 47.991V45.9053H121.351V49.37H120.561L118.989 47.2939V49.37H118.144V45.9053L118.939 45.9053Z" fill="#754C29"/>
    <path d="M124.321 47.6005H125.102V48.9645C124.672 49.2434 124.172 49.3974 123.659 49.4094C123.42 49.4203 123.181 49.3826 122.957 49.2987C122.733 49.2147 122.528 49.0861 122.354 48.9208C122.181 48.7554 122.043 48.5567 121.949 48.3365C121.855 48.1164 121.806 47.8795 121.806 47.64C121.81 47.3969 121.863 47.1572 121.963 46.9354C122.062 46.7137 122.206 46.5144 122.385 46.3498C122.564 46.1853 122.774 46.0588 123.003 45.978C123.233 45.8973 123.476 45.864 123.719 45.8802C124.238 45.8803 124.742 46.0622 125.142 46.3944L124.628 47.0271C124.38 46.793 124.055 46.6576 123.714 46.6462C123.452 46.6508 123.202 46.7584 123.019 46.9457C122.836 47.133 122.734 47.385 122.735 47.6469C122.736 47.9089 122.841 48.1598 123.026 48.3453C123.211 48.5308 123.461 48.636 123.723 48.6381C123.932 48.6285 124.136 48.573 124.321 48.4753V47.6005Z" fill="#754C29"/>
</svg>

