<svg width="46" height="46" viewBox="0 0 46 46" fill="none" xmlns="http://www.w3.org/2000/svg">
<path d="M28.4336 12.4268C28.4334 11.308 28.1013 10.2144 27.4791 9.28425C26.857 8.35409 25.9728 7.62917 24.9383 7.20113C23.9039 6.7731 22.7656 6.66119 21.6675 6.87954C20.5694 7.0979 19.5608 7.63671 18.7692 8.42786C17.9775 9.21901 17.4384 10.227 17.22 11.3243C17.0017 12.4215 17.1138 13.5589 17.5423 14.5925C17.9708 15.6261 18.6964 16.5095 19.6274 17.1311C20.5583 17.7526 21.6528 18.0844 22.7725 18.0844C23.5159 18.0844 24.2522 17.938 24.939 17.6537C25.6259 17.3694 26.25 16.9526 26.7757 16.4273C27.3014 15.9019 27.7184 15.2782 28.0029 14.5918C28.2873 13.9054 28.4337 13.1697 28.4336 12.4268ZM18.4522 12.4268C18.4523 11.573 18.7059 10.7385 19.1807 10.0286C19.6555 9.31881 20.3303 8.76561 21.1197 8.43899C21.9091 8.11236 22.7778 8.02698 23.6158 8.19364C24.4538 8.36029 25.2235 8.77151 25.8276 9.37528C26.4317 9.97905 26.8431 10.7483 27.0097 11.5856C27.1764 12.423 27.0908 13.291 26.7638 14.0798C26.4368 14.8686 25.883 15.5427 25.1726 16.017C24.4621 16.4914 23.6269 16.7445 22.7725 16.7445C22.205 16.7445 21.6432 16.6328 21.119 16.4158C20.5948 16.1989 20.1185 15.8808 19.7173 15.4799C19.3161 15.0789 18.9979 14.6029 18.7808 14.0791C18.5638 13.5552 18.4521 12.9938 18.4522 12.4268Z" fill="#754C29"/>
<path d="M45.5019 44.6012L40.0365 30.284C39.9881 30.1573 39.9022 30.0482 39.7904 29.9713C39.6785 29.8943 39.546 29.853 39.4102 29.853H29.0664C29.1296 29.75 29.1924 29.6501 29.2556 29.5467C33.2357 22.9624 35.2386 17.2026 35.2098 12.4297C35.2101 10.7977 34.8887 9.18159 34.2639 7.6737C33.6392 6.16581 32.7233 4.79565 31.5686 3.64144C30.4139 2.48724 29.043 1.5716 27.5342 0.946798C26.0254 0.321997 24.4081 0.000276691 22.7749 1.78393e-07C21.1416 -0.000276334 19.5243 0.320899 18.0153 0.945189C16.5062 1.56948 15.135 2.48466 13.98 3.63847C12.8249 4.79229 11.9085 6.16214 11.2833 7.66982C10.658 9.1775 10.336 10.7935 10.3357 12.4255C10.307 17.2026 12.3099 22.9632 16.2899 29.5467C16.3531 29.6513 16.416 29.7512 16.4792 29.853H6.1354C5.9996 29.853 5.86702 29.8943 5.75517 29.9712C5.64333 30.0482 5.55751 30.1573 5.50903 30.284L0.0444179 44.6012C0.00548144 44.7026 -0.00815552 44.812 0.00469028 44.9199C0.0175361 45.0278 0.0564779 45.1309 0.118147 45.2204C0.179816 45.3099 0.262358 45.383 0.358644 45.4334C0.454931 45.4839 0.56207 45.5102 0.670794 45.51H44.8755C44.9842 45.5102 45.0913 45.4839 45.1876 45.4334C45.2839 45.383 45.3665 45.3099 45.4281 45.2204C45.4898 45.1309 45.5287 45.0278 45.5416 44.9199C45.5544 44.812 45.5408 44.7026 45.5019 44.6012H45.5019ZM11.677 12.4266C11.6772 10.9706 11.9645 9.52882 12.5223 8.18369C13.0802 6.83856 13.8977 5.6164 14.9283 4.58698C15.9589 3.55756 17.1822 2.74105 18.5286 2.18407C19.8749 1.62709 21.3179 1.34055 22.7751 1.3408C24.2322 1.34105 25.6751 1.62809 27.0212 2.18554C28.3674 2.74298 29.5905 3.55992 30.6207 4.58969C31.6509 5.61946 32.468 6.8419 33.0254 8.18723C33.5828 9.53255 33.8696 10.9744 33.8693 12.4305C33.9268 21.9464 25.0235 33.683 22.7731 36.4975C20.5228 33.6842 11.6191 21.9506 11.677 12.4266V12.4266ZM22.2625 37.9904C22.3254 38.0644 22.4037 38.1238 22.4918 38.1645C22.58 38.2052 22.676 38.2263 22.7731 38.2263C22.8703 38.2263 22.9663 38.2052 23.0544 38.1645C23.1426 38.1238 23.2209 38.0644 23.2838 37.9904C25.0639 35.8237 26.7141 33.5536 28.2259 31.1921H38.9478L39.8059 33.4411L18.8536 40.8872L11.3854 31.1909H17.3197C18.8317 33.5528 20.4822 35.8233 22.2625 37.9904L22.2625 37.9904ZM18.8303 42.3162H18.8341L31.3336 37.8756L36.1818 44.1702H13.617L18.8303 42.3162ZM6.59779 31.1909H9.69326L17.5246 41.3592L9.61626 44.1698H1.64389L6.59779 31.1909ZM37.8755 44.1701L32.6618 37.4013L40.2855 34.6921L43.9032 44.1701H37.8755Z" fill="#754C29"/>
</svg>
