<svg xmlns="http://www.w3.org/2000/svg" width="30" height="30" viewBox="0 0 30 30" fill="none">
    <g clip-path="url(#clip0_4011_5815)">
        <path d="M18.5 17.5H17.95C17.7431 17.5004 17.5581 17.3713 17.487 17.177C17.426 17.017 17.3605 16.8605 17.29 16.7055C17.2024 16.517 17.2424 16.2938 17.39 16.1475L17.782 15.755C18.3639 15.1679 18.3629 14.2212 17.7795 13.6355L16.3665 12.2225C15.7801 11.6395 14.8329 11.6395 14.2465 12.2225L13.8545 12.614C13.7079 12.7611 13.4851 12.801 13.2965 12.714C13.1415 12.6435 12.985 12.578 12.8245 12.514C12.6292 12.4434 12.4993 12.2577 12.5 12.05V11.5C12.5 10.6716 11.8284 10 11 10H9C8.17156 10 7.5 10.6716 7.5 11.5V12.05C7.50037 12.2569 7.37131 12.4419 7.177 12.513C7.017 12.574 6.8605 12.6395 6.7055 12.71C6.51694 12.7972 6.29406 12.7572 6.1475 12.61L5.755 12.218C5.16862 11.6354 4.22188 11.6354 3.6355 12.218L2.2225 13.6355C1.6395 14.2219 1.6395 15.1691 2.2225 15.7555L2.614 16.1475C2.76163 16.2938 2.80163 16.517 2.714 16.7055C2.6435 16.8605 2.578 17.017 2.5165 17.1775C2.44494 17.3729 2.25812 17.5021 2.05 17.5H1.5C0.671562 17.5 0 18.1716 0 19V21C0 21.8284 0.671562 22.5 1.5 22.5H2.05C2.25688 22.4996 2.44194 22.6287 2.513 22.823C2.574 22.983 2.6395 23.1395 2.71 23.2945C2.79763 23.483 2.75762 23.7062 2.61 23.8525L2.218 24.245C1.63538 24.8314 1.63538 25.7781 2.218 26.3645L3.631 27.7775C4.21744 28.3605 5.16456 28.3605 5.751 27.7775L6.143 27.386C6.28963 27.2389 6.51244 27.199 6.701 27.286C6.856 27.3565 7.0125 27.422 7.173 27.486C7.36931 27.5557 7.50037 27.7417 7.5 27.95V28.5C7.5 29.3284 8.17156 30 9 30H11C11.8284 30 12.5 29.3284 12.5 28.5V27.95C12.4996 27.7431 12.6287 27.5581 12.823 27.487C12.983 27.426 13.1395 27.3605 13.2945 27.29C13.4831 27.2028 13.7059 27.2428 13.8525 27.39L14.245 27.782C14.8322 28.3637 15.7787 28.3626 16.3645 27.7795L17.7775 26.3665C18.3605 25.7801 18.3605 24.8329 17.7775 24.2465L17.386 23.8545C17.2384 23.7082 17.1984 23.485 17.286 23.2965C17.3565 23.1415 17.422 22.985 17.486 22.8245C17.5566 22.6292 17.7423 22.4993 17.95 22.5H18.5C19.3284 22.5 20 21.8284 20 21V19C20 18.1716 19.3284 17.5 18.5 17.5ZM19 21C19 21.2761 18.7761 21.5 18.5 21.5H17.95C17.3284 21.5023 16.7722 21.8865 16.55 22.467C16.497 22.607 16.4397 22.7448 16.378 22.8805C16.1209 23.448 16.2402 24.1153 16.678 24.5585L17.069 24.95C17.2644 25.1451 17.2646 25.4618 17.0694 25.6571C17.0692 25.6573 17.0691 25.6574 17.069 25.6575L15.656 27.0705C15.4608 27.2657 15.1442 27.2657 14.949 27.0705L14.557 26.679C14.1139 26.2408 13.4464 26.1215 12.879 26.379C12.7435 26.4405 12.6055 26.498 12.4665 26.551C11.8864 26.7731 11.5025 27.3289 11.5 27.95V28.5C11.5 28.7761 11.2761 29 11 29H9C8.72388 29 8.5 28.7761 8.5 28.5V27.95C8.49769 27.3284 8.1135 26.7722 7.533 26.55C7.393 26.497 7.25519 26.4397 7.1195 26.378C6.552 26.1211 5.88481 26.2404 5.4415 26.678L5.05 27.069C4.85488 27.2644 4.53825 27.2646 4.34288 27.0694C4.34275 27.0692 4.34263 27.0691 4.3425 27.069L2.9295 25.6575C2.73431 25.4622 2.73431 25.1458 2.9295 24.9505L3.321 24.5585C3.75881 24.1153 3.87806 23.448 3.621 22.8805C3.5595 22.745 3.502 22.607 3.449 22.468C3.22737 21.8873 2.6715 21.5028 2.05 21.5H1.5C1.22388 21.5 1 21.2761 1 21V19C1 18.7239 1.22388 18.5 1.5 18.5H2.05C2.67156 18.4977 3.22781 18.1135 3.45 17.533C3.503 17.393 3.56031 17.2552 3.622 17.1195C3.87906 16.552 3.75975 15.8847 3.322 15.4415L2.929 15.05C2.73362 14.8549 2.73344 14.5382 2.92863 14.3429C2.92875 14.3427 2.92887 14.3426 2.929 14.3425L4.342 12.9295C4.53725 12.7343 4.85375 12.7343 5.049 12.9295L5.441 13.321C5.88406 13.7592 6.55156 13.8785 7.119 13.621C7.2545 13.5595 7.3925 13.502 7.5315 13.449C8.11238 13.2276 8.49719 12.6716 8.5 12.05V11.5C8.5 11.2239 8.72388 11 9 11H11C11.2761 11 11.5 11.2239 11.5 11.5V12.05C11.5023 12.6716 11.8865 13.2278 12.467 13.45C12.607 13.503 12.7448 13.5603 12.8805 13.622C13.4479 13.8795 14.1154 13.7602 14.5585 13.322L14.95 12.931C15.146 12.7371 15.4615 12.7371 15.6575 12.931L17.0705 14.344C17.2657 14.5392 17.2657 14.8557 17.0705 15.051L16.679 15.443C16.2413 15.8863 16.1219 16.5535 16.379 17.121C16.4405 17.2565 16.498 17.3945 16.551 17.5335C16.7731 18.1136 17.3289 18.4975 17.95 18.5H18.5C18.7761 18.5 19 18.7239 19 19V21Z" fill="#8b531d"/>
        <path d="M14.4897 19.8C14.4847 19.68 14.4762 19.5605 14.4617 19.4415C14.4457 19.3135 14.4267 19.1865 14.4002 19.062C14.3827 18.9805 14.3597 18.9 14.3377 18.819C14.3097 18.716 14.2782 18.6145 14.2432 18.5145C14.2187 18.445 14.1932 18.376 14.1672 18.3075C14.1028 18.1474 14.0292 17.9911 13.9467 17.8395C13.9402 17.828 13.9362 17.8155 13.9297 17.804C13.7996 17.5725 13.649 17.3531 13.4797 17.1485C13.4652 17.1305 13.4487 17.1135 13.4337 17.096C13.3647 17.0145 13.2937 16.9355 13.2192 16.86C13.1802 16.8195 13.1392 16.7815 13.0982 16.7425C13.0482 16.696 12.9982 16.65 12.9482 16.606C12.8875 16.5533 12.8257 16.5023 12.7627 16.453L12.6807 16.392C11.907 15.8125 10.9663 15.4995 9.99966 15.5C9.94966 15.5 9.89966 15.5075 9.84966 15.5095C9.74316 15.5125 9.63616 15.5185 9.52866 15.5295C9.47216 15.5355 9.41516 15.542 9.35866 15.55C9.19566 15.5714 9.03391 15.6017 8.87416 15.6405C6.4666 16.2626 5.01923 18.7188 5.64135 21.1263C6.05135 22.7128 7.29085 23.9513 8.87766 24.36C8.88566 24.36 8.89416 24.3625 8.90266 24.3645C9.07535 24.4076 9.25029 24.441 9.42666 24.4645C9.54316 24.479 9.65966 24.482 9.77666 24.4875C9.85466 24.4915 9.92666 24.503 10.0082 24.503C10.1507 24.503 10.2987 24.4935 10.4497 24.4785C10.4657 24.4785 10.4817 24.474 10.4997 24.472C10.6212 24.4585 10.7442 24.4405 10.8697 24.4155C10.9197 24.406 10.9662 24.3935 11.0142 24.3825C11.1022 24.362 11.1897 24.3405 11.2797 24.314C11.3497 24.293 11.4177 24.2685 11.4862 24.2445C11.5547 24.2205 11.6257 24.1945 11.6967 24.1675C11.7677 24.1405 11.8272 24.1095 11.8917 24.0795C11.9757 24.041 12.0592 24.003 12.1417 23.958H12.1447C12.6113 23.7082 13.0423 23.3969 13.4262 23.0325C13.5299 22.9358 13.62 22.8254 13.6942 22.7045C14.0844 22.0789 14.3408 21.3792 14.4472 20.6495C14.4612 20.553 14.4737 20.4565 14.4812 20.358C14.4882 20.2675 14.4932 20.1775 14.4952 20.0875C14.4952 20.059 14.4992 20.032 14.4992 20.0035C14.4997 19.933 14.4927 19.868 14.4897 19.8ZM13.4932 20.1275C13.4932 20.169 13.4897 20.2105 13.4872 20.2515C13.4782 20.3725 13.4627 20.4935 13.4422 20.615C13.2553 21.6546 12.6099 22.5546 11.6852 23.065C11.6232 23.0975 11.5622 23.128 11.5012 23.156L11.4597 23.176C11.1692 23.3079 10.8625 23.4007 10.5477 23.452C10.5257 23.4555 10.5032 23.4595 10.4807 23.4625C10.4182 23.4715 10.3567 23.479 10.2957 23.4845C10.2152 23.4915 10.1342 23.4955 10.0517 23.497C10.0167 23.497 9.98216 23.497 9.94716 23.497C9.82885 23.4956 9.71073 23.4883 9.59316 23.475L9.53316 23.468C9.39566 23.45 9.25929 23.4243 9.12466 23.391C7.25204 22.9117 6.12254 21.0051 6.60179 19.1324C6.91848 17.8951 7.8841 16.9284 9.12116 16.6105V16.61C9.40841 16.5376 9.70341 16.5006 9.99966 16.5C10.1426 16.5008 10.2854 16.5105 10.4272 16.529C10.4652 16.5335 10.5027 16.5405 10.5402 16.546C10.6482 16.563 10.7552 16.5845 10.8607 16.6115C10.8952 16.6205 10.9297 16.6285 10.9637 16.638C11.2295 16.7148 11.4855 16.8225 11.7262 16.959C11.7647 16.9815 11.8022 17.005 11.8402 17.0285C11.9192 17.0785 11.9957 17.1285 12.0712 17.1855C12.1117 17.215 12.1527 17.244 12.1917 17.2755C12.2898 17.3539 12.3837 17.4373 12.4732 17.5255C12.5087 17.5615 12.5412 17.601 12.5757 17.6385C12.6332 17.701 12.6892 17.765 12.7427 17.8325C12.7797 17.879 12.8152 17.927 12.8502 17.9755C12.9002 18.0475 12.9502 18.1225 12.9952 18.1985C13.0202 18.24 13.0452 18.2805 13.0707 18.323C13.1352 18.4417 13.1926 18.5641 13.2427 18.6895C13.2627 18.7395 13.2797 18.7895 13.2977 18.8395C13.3302 18.9315 13.3582 19.0245 13.3827 19.1185C13.3952 19.1685 13.4092 19.213 13.4197 19.2615C13.4489 19.3966 13.47 19.5334 13.4832 19.671C13.4862 19.7075 13.4862 19.7445 13.4887 19.781C13.4957 19.896 13.4977 20.0115 13.4932 20.1275Z" fill="#8b4d10" fill-opacity="0.6"/>
        <path d="M28.5003 10.5H26.9278C26.7181 10.5021 26.5305 10.3701 26.4618 10.172C26.3067 9.70756 26.1191 9.25456 25.9003 8.8165C25.8074 8.62731 25.8461 8.39987 25.9963 8.252L27.1113 7.1355C27.6965 6.54981 27.6965 5.60069 27.1113 5.015L24.9853 2.8925C24.3996 2.30725 23.4505 2.30725 22.8648 2.8925L21.7503 4.0065C21.6026 4.15662 21.3755 4.1955 21.1863 4.103C20.7481 3.88306 20.295 3.69444 19.8303 3.5385C19.6314 3.47044 19.4984 3.28269 19.5003 3.0725V1.5C19.5003 0.671562 18.8287 0 18.0003 0H15.0003C14.1718 0 13.5003 0.671562 13.5003 1.5V3.0725C13.5024 3.28219 13.3704 3.46975 13.1723 3.5385C12.7078 3.69438 12.2548 3.88287 11.8168 4.1025C11.6276 4.19569 11.4 4.157 11.2523 4.0065L10.1358 2.8915C9.5494 2.30794 8.60165 2.30794 8.01527 2.8915L5.89327 5.0135C5.30771 5.59925 5.30771 6.54875 5.89327 7.1345L7.53277 8.777C7.73109 8.96913 8.04765 8.96412 8.23977 8.76575C8.42721 8.57225 8.42765 8.265 8.24077 8.071L6.60027 6.429C6.40509 6.23375 6.40509 5.91725 6.60027 5.722L8.72227 3.6C8.91752 3.40481 9.23402 3.40481 9.42927 3.6L10.5463 4.715C10.9982 5.16963 11.6907 5.28325 12.2643 4.997C12.6603 4.79869 13.0698 4.62844 13.4898 4.4875C14.0959 4.28231 14.5029 3.71244 14.5003 3.0725V1.5C14.5003 1.22388 14.7241 1 15.0003 1H18.0003C18.2764 1 18.5003 1.22388 18.5003 1.5V3.0725C18.4977 3.71231 18.9047 4.282 19.5108 4.487C19.9309 4.628 20.3406 4.79838 20.7368 4.997C21.3105 5.28175 22.002 5.168 22.4543 4.7145L23.5713 3.6C23.7665 3.40481 24.083 3.40481 24.2783 3.6L26.4003 5.7225C26.5951 5.91769 26.5951 6.23381 26.4003 6.429L25.2853 7.546C24.8311 7.99819 24.7175 8.69038 25.0033 9.264C25.2016 9.66006 25.3718 10.0696 25.5128 10.4895C25.7178 11.0957 26.2878 11.5028 26.9278 11.5H28.5003C28.7764 11.5 29.0003 11.7239 29.0003 12V15C29.0003 15.2761 28.7764 15.5 28.5003 15.5H26.9278C26.288 15.4974 25.7183 15.9044 25.5133 16.5105C25.3723 16.9306 25.2019 17.3403 25.0033 17.7365C24.718 18.3101 24.8318 19.0019 25.2858 19.454L26.4008 20.571C26.596 20.7662 26.596 21.0828 26.4008 21.278L24.2778 23.4C24.0826 23.5949 23.7665 23.5949 23.5713 23.4L21.9283 21.7605C21.7361 21.5621 21.4196 21.5571 21.2213 21.7493C21.0229 21.9414 21.0179 22.2579 21.21 22.4562C21.214 22.4604 21.2181 22.4645 21.2223 22.4685L22.8648 24.108C23.4505 24.6933 24.3996 24.6933 24.9853 24.108L27.1073 21.9865C27.6928 21.4007 27.6928 20.4513 27.1073 19.8655L25.9938 18.75C25.8438 18.6022 25.805 18.3752 25.8973 18.186C26.1172 17.7479 26.3058 17.2948 26.4618 16.83C26.5298 16.6311 26.7176 16.4981 26.9278 16.5H28.5003C29.3287 16.5 30.0003 15.8284 30.0003 15V12C30.0003 11.1716 29.3287 10.5 28.5003 10.5Z" fill="#8b4d10" fill-opacity="0.6"/>
        <path d="M21.096 8.9041C18.5561 6.36953 14.4439 6.36953 11.904 8.9041C11.7122 9.10272 11.7177 9.41928 11.9163 9.6111C12.1101 9.79822 12.4173 9.79822 12.611 9.6111C14.7444 7.44885 18.2268 7.42553 20.389 9.55897C22.5513 11.6924 22.5746 15.1747 20.4411 17.337C20.4239 17.3545 20.4065 17.3718 20.389 17.3891C20.1904 17.581 20.1849 17.8975 20.3768 18.0961C20.5686 18.2947 20.8851 18.3002 21.0838 18.1083C21.0879 18.1043 21.092 18.1002 21.096 18.0961C23.6306 15.5562 23.6306 11.444 21.096 8.9041Z" fill="#8b4d10" fill-opacity="0.6"/>
    </g>
    <defs fill="#964f0c">
        <clipPath id="clip0_4011_5815" fill="#964f0c">
            <rect width="30" height="30" fill="white"/>
        </clipPath>
    </defs>
</svg>